<svg id="Group_106" data-name="Group 106" xmlns="http://www.w3.org/2000/svg" width="32.457" height="32.095" viewBox="0 0 32.457 32.095">
  <g id="User">
    <circle id="Ellipse_32" data-name="Ellipse 32" cx="16" cy="16" r="16" transform="translate(0.457)" fill="#f1f9ff"/>
    <path id="Union_7" data-name="Union 7" d="M0,16V14c0-2.2,3.6-4,8-4s8,1.8,8,4v2ZM4,4A4,4,0,1,1,8,8,4,4,0,0,1,4,4Z" transform="translate(8.457 8)" fill="#7fc4fd"/>
    <path id="Path_237" data-name="Path 237" d="M16.048,0A16.048,16.048,0,1,1,0,16.048,16.048,16.048,0,0,1,16.048,0Z" fill="#f1f9ff"/>
    <path id="Union_42" data-name="Union 42" d="M0,16V14c0-2.2,3.6-4,8-4s8,1.8,8,4v2ZM4,4A4,4,0,1,1,8,8,4,4,0,0,1,4,4Z" transform="translate(8.457 8)" fill="#fd7fbe"/>
  </g>
</svg>
